<svg xmlns="http://www.w3.org/2000/svg" viewBox="-58 355 433 151.9"><path fill="#A6A8AB" d="M30.9 386.9c1-2 1.6-4.3 1.6-6.7 0-8.3-6.8-15.1-15.1-15.1s-15.1 6.8-15.1 15.1 6.8 15.1 15.1 15.1c.5 0 1.1 0 1.6-.1 5.1 8.7 11 22.2 10.2 36.8-.9 14.8-6.2 27.6-10.7 35.9-.3 0-.7-.1-1-.1-8.3 0-15.1 6.8-15.1 15.1S9.2 498 17.5 498s15.1-6.8 15.1-15.1c0-2.6-.7-5.1-1.8-7.2 5.4-9.7 11.9-24.9 12.9-42.9 1.1-18.8-6.4-35.5-12.8-45.9zm-13.5-1.6c-2.8 0-5.2-2.3-5.2-5.2 0-2.9 2.3-5.2 5.2-5.2 2.9 0 5.2 2.3 5.2 5.2 0 2.9-2.3 5.2-5.2 5.2zm0 102.8c-2.8 0-5.2-2.3-5.2-5.2 0-2.8 2.3-5.2 5.2-5.2 2.9 0 5.2 2.3 5.2 5.2 0 2.8-2.3 5.2-5.2 5.2z"/><path fill="#929497" d="M26.9 413.2c.3 1 .8 3.1.8 3.1s2.4-.6 6.5-.8c5.3-.2 8.1 0 8.1 0s-.7-3.2-1.1-4.7c-2.4-9.5-16.3-4.6-14.3 2.4z"/><path fill="none" d="M-27 405.9L17.4 380.2 61.9 405.9 61.9 457.2 17.4 482.9 -27 457.2z"/><path fill="#58595B" d="M61.9 442.1c-6.2 0-11.6 3.8-13.9 9.2-10.4.3-25.5-1.1-37.8-9.2-12.3-8.1-20.4-19.2-25.1-27.4 1.8-2.5 2.9-5.5 2.9-8.8 0-8.3-6.8-15.1-15.1-15.1s-15.1 6.8-15.1 15.1c0 8 6.3 14.6 14.2 15 5.5 9.8 15.1 23.2 30.2 33.2 14.4 9.5 31.2 11.7 43.5 11.7 1.3 0 2.5 0 3.7-.1 2.7 3.9 7.3 6.5 12.4 6.5 8.3 0 15.1-6.8 15.1-15.1.1-8.2-6.7-15-15-15zM-27 411c-2.8 0-5.2-2.3-5.2-5.2 0-2.9 2.3-5.2 5.2-5.2 2.9 0 5.2 2.3 5.2 5.2s-2.4 5.2-5.2 5.2zm88.9 51.4c-2.9 0-5.2-2.3-5.2-5.2 0-2.9 2.3-5.2 5.2-5.2 2.9 0 5.2 2.3 5.2 5.2 0 2.9-2.3 5.2-5.2 5.2z"/><path fill="#404041" d="M41 451.2s-2.1-.1-3.1-.2c-8.8-.8-14.9 12.7-5.1 14 2 .3 5.8.6 5.8.6s.6-2.7 1.3-6.9c.7-4.4 1.1-7.5 1.1-7.5z"/><path fill="#A6A8AB" d="M26.7 447.1c-1.9 7.1-4.5 13.4-7 18.4-.4.8 13.7 5 15.1 1.9 2.5-5.5 4.8-12 6.5-19.2 1.2-4.8-13.3-5.8-14.6-1.1zm86.8-46.5v1.4c0 3.9-1.2 6.4-3.9 7.7 3.2 1.3 4.5 4.1 4.5 8.2v3.1c0 5.9-3.1 9.1-9.1 9.1h-9.4v-38.2h9.1c6.1-.1 8.8 2.8 8.8 8.7zm-11.9-3.3v10.1h2.3c2.2 0 3.6-1 3.6-4v-2.1c0-2.7-.9-3.9-3.1-3.9h-2.8zm0 15.5v11.7h3.4c2 0 3.1-.9 3.1-3.8v-3.3c0-3.5-1.1-4.6-3.9-4.6h-2.6zm28.6 17.2c-.3-1-.5-1.6-.5-4.7v-6c0-3.5-1.2-4.9-3.9-4.9h-2.1V430h-6v-38.2h9.1c6.2 0 8.9 2.9 8.9 8.8v3c0 3.9-1.3 6.5-3.9 7.7 3 1.3 4 4.1 4 8.1v5.9c0 1.9.1 3.2.7 4.6h-6.3zm-6.5-32.7V409h2.3c2.2 0 3.6-1 3.6-4v-3.8c0-2.7-.9-3.9-3.1-3.9h-2.8zm15.9-5.5h6V430h-6v-38.2zm19.4 16.9h8.4v12.1c0 6.1-3.1 9.6-8.9 9.6-5.9 0-8.9-3.5-8.9-9.6V401c0-6.1 3.1-9.6 8.9-9.6s8.9 3.5 8.9 9.6v3.7h-5.7v-4.1c0-2.7-1.2-3.8-3.1-3.8s-3.1 1-3.1 3.8v20.6c0 2.7 1.2 3.7 3.1 3.7s3.1-1 3.1-3.7v-7H159v-5.5zm18.2 21.3h-6v-38.2h6v16.4h6.8v-16.4h6.1V430H184v-16.4h-6.8V430zm15.6-38.2h18.5v5.5H205V430h-6v-32.7h-6.3l.1-5.5zm19.9 9.2c0-6.1 3.2-9.6 9.1-9.6s9.1 3.5 9.1 9.6v19.8c0 6.1-3.2 9.6-9.1 9.6s-9.1-3.5-9.1-9.6V401zm6 20.2c0 2.7 1.2 3.8 3.1 3.8 1.9 0 3.1-1 3.1-3.8v-20.6c0-2.7-1.2-3.8-3.1-3.8-1.9 0-3.1 1-3.1 3.8v20.6zm21.4-18.9V430h-5.4v-38.2h7.5l6.2 22.8v-22.8h5.3V430h-6.2l-7.4-27.7z"/><path fill="#58595B" d="M95.6 434.7h9.5c6 0 8.9 3.3 8.9 9.4v19.3c0 6.1-2.9 9.4-8.9 9.4h-9.5v-38.1zm6 5.4v27.3h3.4c1.9 0 3.1-1 3.1-3.7v-19.8c0-2.7-1.1-3.7-3.1-3.7h-3.4zm16.1-5.4h6v38.2h-6v-38.2zm19.3 16.9h8.4v12.1c0 6.1-3.1 9.6-8.9 9.6s-8.9-3.5-8.9-9.6v-19.8c0-6.1 3.1-9.6 8.9-9.6 5.9 0 8.9 3.5 8.9 9.6v3.7h-5.7v-4.1c0-2.7-1.2-3.8-3.1-3.8s-3.1 1-3.1 3.8V464c0 2.7 1.2 3.7 3.1 3.7s3.1-1 3.1-3.7v-7H137v-5.4zm12.3-16.9h6v38.2h-6v-38.2zm8.6 0h18.5v5.5h-6.3v32.7h-6v-32.7h-6.3l.1-5.5zm38.5 38.1h-6.1l-1-6.9h-7.4l-1 6.9h-5.5l6.1-38.2h8.8l6.1 38.2zm-13.7-12.1h5.8l-2.9-19.3-2.9 19.3zm16.5-26h6v32.7h9.9v5.5h-15.9v-38.2z"/><path fill="#A6A8AB" d="M223.6 451.6h7.7v5.5h-7.7v15.8h-6v-38.2h15.9v5.5h-9.9v11.4zm18.8-.9h8.2v5.5h-8.2v11.2h10.4v5.5h-16.4v-38.2h16.4v5.5h-10.4v10.5zm22.1-16.5c5.8 0 8.8 3.5 8.8 9.6v1.2h-5.7v-1.6c0-2.7-1.1-3.8-3-3.8s-3 1-3 3.8c0 7.9 11.7 9.3 11.7 20.2 0 6.1-3.1 9.6-8.9 9.6-5.9 0-8.9-3.5-8.9-9.6v-2.3h5.7v2.7c0 2.7 1.2 3.7 3.1 3.7s3.1-1 3.1-3.7c0-7.9-11.7-9.3-11.7-20.2 0-6.1 3-9.6 8.8-9.6zm10.6.5h18.5v5.5h-6.3v32.7h-6v-32.7H275l.1-5.5zm21.2 0h6v38.2h-6v-38.2zm19.4 31.1l4.6-31.1h5.5l-5.9 38.2H311l-5.9-38.2h6.1l4.5 31.1zm29.8 7h-6.1l-1-6.9H331l-1 6.9h-5.5l6.1-38.2h8.8l6.1 38.2zm-13.7-12.1h5.8l-2.9-19.3-2.9 19.3zm16.5-26h6v32.7h9.9v5.5h-15.9v-38.2z"/><path fill="#58595B" d="M61.9 442.1c-6.2 0-11.6 3.8-13.9 9.2-10.4.3-25.5-1.1-37.8-9.2-12.3-8.1-20.4-19.2-25.1-27.4 1.8-2.5 2.9-5.5 2.9-8.8 0-8.3-6.8-15.1-15.1-15.1s-15.1 6.8-15.1 15.1c0 8 6.3 14.6 14.2 15 5.5 9.8 15.1 23.2 30.2 33.2 14.4 9.5 31.2 11.7 43.5 11.7 1.3 0 2.5 0 3.7-.1 2.7 3.9 7.3 6.5 12.4 6.5 8.3 0 15.1-6.8 15.1-15.1.1-8.2-6.7-15-15-15zM-27 411c-2.8 0-5.2-2.3-5.2-5.2 0-2.9 2.3-5.2 5.2-5.2 2.9 0 5.2 2.3 5.2 5.2s-2.4 5.2-5.2 5.2zm88.9 51.4c-2.9 0-5.2-2.3-5.2-5.2 0-2.9 2.3-5.2 5.2-5.2 2.9 0 5.2 2.3 5.2 5.2 0 2.9-2.3 5.2-5.2 5.2z"/><g><path fill="#FEBE10" d="M-2.7 431.1c4.1-4.3 8.9-8.2 14.6-11 13.2-6.6 26.8-8 36.3-8 2.4 5.3 7.6 8.9 13.8 8.9 8.3 0 15.1-6.8 15.1-15.1s-6.8-15.1-15.1-15.1c-5.3 0-9.9 2.7-12.6 6.8-11.2-.1-27.6 1.4-43.9 9.6-6.7 3.3-12.4 7.7-17.2 12.5 2.4 3.6 5.4 7.5 9 11.4zm64.6-30.4c2.9 0 5.2 2.3 5.2 5.2 0 2.8-2.3 5.2-5.2 5.2-2.9 0-5.2-2.3-5.2-5.2 0-2.9 2.4-5.2 5.2-5.2zm-73.6 41.9c-3.8-3.8-7-7.7-9.7-11.5-2.8 3.9-5 7.7-6.8 11.1-7.8.6-13.9 7.1-13.9 15 0 8.3 6.8 15.1 15.1 15.1s15.1-6.8 15.1-15.1c0-3.4-1.1-6.5-3.1-9.1 1-1.7 2.1-3.6 3.3-5.5zM-27 462.4c-2.9 0-5.2-2.3-5.2-5.2 0-2.9 2.3-5.2 5.2-5.2 2.9 0 5.2 2.3 5.2 5.2-.1 2.9-2.4 5.2-5.2 5.2z"/><path fill="#DBA214" d="M-21.4 431.1c-.7.9-1.3 1.9-1.3 1.9s1.4 3 3.7 6.5c3 4.5 5.3 6.3 5.3 6.3s1-1.6 2.1-3.3c-3.9-3.7-7.1-7.6-9.8-11.4z"/></g></svg>